<svg width="20" height="15" viewBox="0 0 20 15" fill="none" xmlns="http://www.w3.org/2000/svg">
<path d="M17.5333 3.60654H8.73333C8.28889 3.60654 7.86667 3.73988 7.46667 4.00654C7.37778 3.33988 7.1 2.79543 6.63333 2.37321C6.16667 1.95099 5.62222 1.73988 5 1.73988C4.51111 1.73988 4.06667 1.85099 3.66667 2.07321V1.07321C3.66667 0.895432 3.61111 0.750987 3.5 0.639875C3.38889 0.528765 3.24444 0.473209 3.06667 0.473209H0.6C0.422222 0.473209 0.277778 0.528765 0.166667 0.639875C0.0555556 0.750987 0 0.895432 0 1.07321V13.6065C0 13.7843 0.0555556 13.9288 0.166667 14.0399C0.277778 14.151 0.422222 14.2065 0.6 14.2065H3.06667C3.24444 14.2065 3.38889 14.151 3.5 14.0399C3.61111 13.9288 3.66667 13.7843 3.66667 13.6065V11.6732H16.3333V13.6065C16.3333 13.7843 16.3889 13.9288 16.5 14.0399C16.6111 14.151 16.7556 14.2065 16.9333 14.2065H19.4C19.5778 14.2065 19.7222 14.151 19.8333 14.0399C19.9444 13.9288 20 13.7843 20 13.6065V6.07321C20 5.40654 19.7556 4.82876 19.2667 4.33988C18.7778 3.85099 18.2 3.60654 17.5333 3.60654ZM5 2.87321C5.35556 2.87321 5.65556 3.00654 5.9 3.27321C6.14444 3.53988 6.26667 3.85099 6.26667 4.20654C6.26667 4.5621 6.14444 4.8621 5.9 5.10654C5.65556 5.35099 5.35556 5.47321 5 5.47321C4.64444 5.47321 4.33333 5.35099 4.06667 5.10654C3.8 4.8621 3.66667 4.5621 3.66667 4.20654C3.66667 3.85099 3.8 3.53988 4.06667 3.27321C4.33333 3.00654 4.64444 2.87321 5 2.87321ZM3.66667 6.27321C4.06667 6.53988 4.5 6.67321 4.96667 6.67321C5.43333 6.67321 5.86667 6.53988 6.26667 6.27321V8.00654H3.66667V6.27321ZM18.8 13.0065H17.4667V11.0732C17.4667 10.9399 17.4111 10.8177 17.3 10.7065C17.1889 10.5954 17.0667 10.5399 16.9333 10.5399H3.06667C2.93333 10.5399 2.81111 10.5954 2.7 10.7065C2.58889 10.8177 2.53333 10.9399 2.53333 11.0732V13.0065H1.2V1.67321H2.53333V8.60654C2.53333 8.73988 2.58889 8.87321 2.7 9.00654C2.81111 9.13988 2.93333 9.20654 3.06667 9.20654H18.8V13.0065ZM18.8 8.00654H7.46667V6.07321C7.46667 5.71765 7.58889 5.41765 7.83333 5.17321C8.07778 4.92876 8.37778 4.80654 8.73333 4.80654H17.5333C17.8889 4.80654 18.1889 4.92876 18.4333 5.17321C18.6778 5.41765 18.8 5.71765 18.8 6.07321V8.00654Z" fill="#1A1A1A"/>
</svg>
