<svg width="20" height="21" viewBox="0 0 20 21" fill="none" xmlns="http://www.w3.org/2000/svg">
<path d="M14.4 20.34C12.5778 20.34 10.8 20.0066 9.06667 19.34C7.24444 18.6289 5.63333 17.5622 4.23333 16.14C2.83333 14.7177 1.75556 13.0955 1 11.2733C0.333333 9.53997 0 7.76219 0 5.93997C0 4.91774 0.255556 3.98441 0.766667 3.13997C1.27778 2.29552 1.95556 1.61774 2.8 1.10663C3.64444 0.59552 4.57778 0.339964 5.6 0.339964C5.86667 0.339964 6.04444 0.473299 6.13333 0.739965L8.66667 7.00663C8.71111 7.13997 8.7 7.28441 8.63333 7.43997C8.56667 7.59552 8.46667 7.69552 8.33333 7.73997L5.6 8.8733C5.64444 9.89552 5.93333 10.8511 6.46667 11.74C7 12.6289 7.71111 13.34 8.6 13.8733C9.48889 14.4066 10.4444 14.6955 11.4667 14.74L12.6 12.0066C12.6444 11.8733 12.7444 11.7733 12.9 11.7066C13.0556 11.64 13.2 11.6289 13.3333 11.6733L19.6 14.2066C19.8667 14.2955 20 14.4733 20 14.74C20 15.7622 19.7444 16.6955 19.2333 17.54C18.7222 18.3844 18.0444 19.0622 17.2 19.5733C16.3556 20.0844 15.4222 20.34 14.4 20.34ZM5.2 1.53996C4.08889 1.62885 3.14444 2.09552 2.36667 2.93996C1.58889 3.78441 1.2 4.78441 1.2 5.93997C1.2 7.71774 1.53333 9.40663 2.2 11.0066C2.86667 12.6066 3.82222 14.0289 5.06667 15.2733C6.31111 16.5177 7.73333 17.4733 9.33333 18.14C10.9333 18.8066 12.6222 19.14 14.4 19.14C15.5556 19.14 16.5556 18.7511 17.4 17.9733C18.2444 17.1955 18.7111 16.2511 18.8 15.14L13.4667 13.0066L12.4 15.6066C12.3111 15.8289 12.1333 15.94 11.8667 15.94C10.5333 15.94 9.28889 15.6066 8.13333 14.94C6.97778 14.2733 6.06667 13.3622 5.4 12.2066C4.73333 11.0511 4.4 9.80663 4.4 8.4733C4.4 8.20663 4.51111 8.02885 4.73333 7.93997L7.33333 6.8733L5.2 1.53996Z" fill="#1F4B43"/>
</svg>
