<svg width="30" height="20" viewBox="0 0 30 20" fill="none" xmlns="http://www.w3.org/2000/svg">
<path d="M24.1875 7.55C23.3375 3.2375 19.55 0 15 0C11.3875 0 8.25 2.05 6.6875 5.05C2.925 5.45 0 8.6375 0 12.5C0 16.6375 3.3625 20 7.5 20H23.75C27.2 20 30 17.2 30 13.75C30 10.45 27.4375 7.775 24.1875 7.55ZM23.75 17.5H7.5C4.7375 17.5 2.5 15.2625 2.5 12.5C2.5 9.9375 4.4125 7.8 6.95 7.5375L8.2875 7.4L8.9125 6.2125C10.1 3.925 12.425 2.5 15 2.5C18.275 2.5 21.1 4.825 21.7375 8.0375L22.1125 9.9125L24.025 10.05C25.975 10.175 27.5 11.8125 27.5 13.75C27.5 15.8125 25.8125 17.5 23.75 17.5ZM16.8125 7.5H13.1875V11.25H10L15 16.25L20 11.25H16.8125V7.5Z" fill="white"/>
</svg>
