<svg width="71" height="70" viewBox="0 0 71 70" fill="none" xmlns="http://www.w3.org/2000/svg">
<path d="M27.1465 39.1015H12.207C11.2379 39.0914 10.2953 39.4176 9.53957 40.0241C8.78385 40.6308 8.2617 41.4805 8.06197 42.429L4.81652 58.834C4.70719 59.4364 4.73288 60.0554 4.89174 60.6465C5.0506 61.2376 5.33868 61.7861 5.7352 62.2526C6.1317 62.719 6.62678 63.0914 7.18471 63.3432C7.74262 63.595 8.3495 63.72 8.96151 63.709H30.3919C31.0038 63.7203 31.6106 63.5953 32.1686 63.3435C32.7264 63.0914 33.2213 62.719 33.6177 62.2526C34.0139 61.7861 34.3018 61.2374 34.4601 60.6462C34.6187 60.0551 34.6441 59.4361 34.5342 58.834L31.2887 42.429C31.0897 41.4808 30.568 40.631 29.8127 40.0243C29.0574 39.4176 28.1152 39.0914 27.1465 39.1015Z" stroke="#2A2A2A" stroke-width="4.38" stroke-linecap="round" stroke-linejoin="round"/>
<path d="M58.7926 39.1015H43.8531C42.8844 39.0914 41.9422 39.4176 41.187 40.0243C40.4316 40.631 39.9102 41.4808 39.7109 42.429L36.4654 58.834C36.3558 59.4361 36.3809 60.0551 36.5395 60.6462C36.6981 61.2374 36.9857 61.7861 37.3822 62.2526C37.7784 62.719 38.2732 63.0914 38.8313 63.3435C39.3891 63.5953 39.9958 63.7203 40.6077 63.709H62.0381C62.6503 63.72 63.257 63.595 63.815 63.3432C64.3728 63.0914 64.8679 62.719 65.2644 62.2526C65.6608 61.7861 65.949 61.2376 66.1079 60.6465C66.2667 60.0554 66.2924 59.4364 66.1831 58.834L62.9376 42.429C62.738 41.4805 62.2158 40.6308 61.4601 40.0241C60.7043 39.4176 59.7616 39.0914 58.7926 39.1015Z" stroke="#2A2A2A" stroke-width="4.38" stroke-linecap="round" stroke-linejoin="round"/>
<path d="M43.5527 14.4939H28.6132C27.6442 14.4839 26.7016 14.81 25.9458 15.4166C25.1901 16.0233 24.668 16.8731 24.4682 17.8214L21.2228 34.2265C21.1134 34.8288 21.1391 35.4478 21.298 36.039C21.4569 36.6301 21.7449 37.1786 22.1415 37.645C22.538 38.1115 23.033 38.4838 23.591 38.7357C24.1489 38.9875 24.7558 39.1124 25.3678 39.1015H46.7982C47.4101 39.1127 48.0168 38.9878 48.5749 38.7359C49.1326 38.4838 49.6275 38.1115 50.024 37.645C50.4201 37.1786 50.7081 36.6298 50.8664 36.0387C51.0249 35.4476 51.0504 34.8285 50.9405 34.2265L47.695 17.8214C47.496 16.8733 46.9743 16.0236 46.2188 15.4169C45.4636 14.8102 44.5215 14.484 43.5527 14.4939Z" stroke="#2A2A2A" stroke-width="4.38" stroke-linecap="round" stroke-linejoin="round"/>
<path d="M58.0566 10.3925H66.2591" stroke="#2A2A2A" stroke-width="4.38" stroke-linecap="round" stroke-linejoin="round"/>
<path d="M62.1582 6.29126V14.4938" stroke="#2A2A2A" stroke-width="4.38" stroke-linecap="round" stroke-linejoin="round"/>
<path d="M4.74023 20.6456H12.9427" stroke="#2A2A2A" stroke-width="4.38" stroke-linecap="round" stroke-linejoin="round"/>
<path d="M8.8418 16.5444V24.7469" stroke="#2A2A2A" stroke-width="4.38" stroke-linecap="round" stroke-linejoin="round"/>
</svg>
