<svg width="71" height="70" viewBox="0 0 71 70" fill="none" xmlns="http://www.w3.org/2000/svg">
<path d="M66.2591 65.7594C65.0011 62.165 62.6571 59.0503 59.5516 56.8463C56.4464 54.642 52.7326 53.4573 48.9245 53.4556C45.1163 53.4573 41.4028 54.642 38.2973 56.8463C35.1918 59.0503 32.8478 62.165 31.5898 65.7594" stroke="#2A2A2A" stroke-width="4.38" stroke-linecap="round" stroke-linejoin="round"/>
<path d="M39.1914 32.2658C40.9394 34.0748 43.0337 35.5129 45.3496 36.4948C47.6654 37.4766 50.1554 37.9816 52.6708 37.9802C55.2202 38.0109 57.7493 37.5272 60.1078 36.5585" stroke="#2A2A2A" stroke-width="4.38" stroke-linecap="round" stroke-linejoin="round"/>
<path d="M37.6602 38.0623C37.6602 41.0499 38.8468 43.915 40.9595 46.0277C43.0719 48.1401 45.9373 49.327 48.9249 49.327C51.9125 49.327 54.7777 48.1401 56.8904 46.0277C59.0028 43.915 60.1897 41.0499 60.1897 38.0623C60.1897 35.0746 59.0028 32.2095 56.8904 30.0968C54.7777 27.9843 51.9125 26.7975 48.9249 26.7975C45.9373 26.7975 43.0719 27.9843 40.9595 30.0968C38.8468 32.2095 37.6602 35.0746 37.6602 38.0623Z" stroke="#2A2A2A" stroke-width="4.38" stroke-linecap="round" stroke-linejoin="round"/>
<path d="M48.5684 53.4556V65.7594" stroke="#2A2A2A" stroke-width="4.38" stroke-linecap="round" stroke-linejoin="round"/>
<path d="M18.3843 60.5645C14.2442 57.792 10.8397 54.0555 8.46347 49.6759C6.08726 45.2963 4.8105 40.4052 4.74305 35.423C4.6756 30.441 5.81947 25.517 8.07625 21.0748C10.333 16.6325 13.6352 12.805 17.6987 9.92151C21.7621 7.038 26.4652 5.18479 31.4035 4.52126C36.3417 3.85774 41.3671 4.40379 46.0477 6.11243C50.728 7.8211 54.9236 10.6412 58.2727 14.3301C61.6221 18.0191 64.0251 22.4665 65.2752 27.2897" stroke="#2A2A2A" stroke-width="4.38" stroke-linecap="round" stroke-linejoin="round"/>
<path d="M24.5628 55.2331C21.2633 44.7752 20.4212 33.6969 22.1021 22.8605C22.8093 16.5947 24.8511 10.5533 28.0899 5.14311" stroke="#2A2A2A" stroke-width="4.38" stroke-linecap="round" stroke-linejoin="round"/>
<path d="M4.79492 32.9494H29.3477" stroke="#2A2A2A" stroke-width="4.38" stroke-linecap="round" stroke-linejoin="round"/>
<path d="M9.4707 18.595H61.5291" stroke="#2A2A2A" stroke-width="4.38" stroke-linecap="round" stroke-linejoin="round"/>
<path d="M7.31055 47.3037H29.3479" stroke="#2A2A2A" stroke-width="4.38" stroke-linecap="round" stroke-linejoin="round"/>
<path d="M42.9102 5.14311C45.4795 9.2626 47.2597 13.8243 48.1598 18.5952" stroke="#2A2A2A" stroke-width="4.38" stroke-linecap="round" stroke-linejoin="round"/>
</svg>
