<svg width="14" height="14" viewBox="0 0 14 14" fill="none" xmlns="http://www.w3.org/2000/svg">
<path d="M3.54794 13.9004H0.823332V5.14062H3.54794V13.9004ZM2.17099 3.96875C1.32138 3.96875 0.618254 3.23633 0.618254 2.35742C0.618254 1.50781 1.32138 0.804688 2.17099 0.804688C3.04989 0.804688 3.75302 1.50781 3.75302 2.35742C3.75302 3.23633 3.04989 3.96875 2.17099 3.96875ZM13.714 13.9004H11.0186V9.65234C11.0186 8.62695 10.9893 7.33789 9.5831 7.33789C8.17685 7.33789 7.97177 8.42188 7.97177 9.56445V13.9004H5.24716V5.14062H7.85458V6.3418H7.88388C8.26474 5.66797 9.14364 4.93555 10.462 4.93555C13.2159 4.93555 13.7433 6.75195 13.7433 9.0957V13.9004H13.714Z" fill="white"/>
</svg>
