<svg width="16" height="13" viewBox="0 0 16 13" fill="none" xmlns="http://www.w3.org/2000/svg">
<path d="M13.7631 3.22852C13.7631 3.375 13.7631 3.49219 13.7631 3.63867C13.7631 7.71094 10.6869 12.3691 5.03261 12.3691C3.2748 12.3691 1.66347 11.8711 0.315814 10.9922C0.550189 11.0215 0.784564 11.0508 1.04824 11.0508C2.48378 11.0508 3.80214 10.5527 4.85683 9.73242C3.50917 9.70312 2.3666 8.82422 1.98574 7.59375C2.19081 7.62305 2.3666 7.65234 2.57167 7.65234C2.83535 7.65234 3.12831 7.59375 3.36269 7.53516C1.95644 7.24219 0.901752 6.01172 0.901752 4.51758V4.48828C1.31191 4.72266 1.80996 4.83984 2.308 4.86914C1.45839 4.3125 0.931049 3.375 0.931049 2.32031C0.931049 1.73438 1.07753 1.20703 1.34121 0.767578C2.86464 2.61328 5.1498 3.84375 7.69863 3.99023C7.64003 3.75586 7.61074 3.52148 7.61074 3.28711C7.61074 1.58789 8.98769 0.210938 10.6869 0.210938C11.5658 0.210938 12.3568 0.5625 12.9428 1.17773C13.6166 1.03125 14.2904 0.767578 14.8764 0.416016C14.642 1.14844 14.1732 1.73438 13.5287 2.11523C14.1439 2.05664 14.7592 1.88086 15.2865 1.64648C14.8764 2.26172 14.349 2.78906 13.7631 3.22852Z" fill="white"/>
</svg>
