<svg width="71" height="70" viewBox="0 0 71 70" fill="none" xmlns="http://www.w3.org/2000/svg">
<path d="M48.541 63.7634C48.541 62.7342 48.7442 61.7151 49.1389 60.7646C49.5335 59.8141 50.112 58.9509 50.841 58.2244C51.57 57.4979 52.4353 56.9225 53.3872 56.5311C54.3391 56.1397 55.3589 55.9401 56.3881 55.9437C58.462 55.9437 60.451 56.7676 61.9174 58.2341C63.3839 59.7005 64.2078 61.6895 64.2078 63.7634" stroke="#2A2A2A" stroke-width="4.38" stroke-miterlimit="10"/>
<path d="M51.166 45.4992C51.166 46.8842 51.7162 48.2125 52.6956 49.1919C53.6749 50.1712 55.0032 50.7214 56.3883 50.7214C57.7733 50.7214 59.1016 50.1712 60.081 49.1919C61.0603 48.2125 61.6105 46.8842 61.6105 45.4992C61.6105 44.1141 61.0603 42.7858 60.081 41.8065C59.1016 40.8271 57.7733 40.2769 56.3883 40.2769C55.0032 40.2769 53.6749 40.8271 52.6956 41.8065C51.7162 42.7858 51.166 44.1141 51.166 45.4992Z" stroke="#2A2A2A" stroke-width="4.38" stroke-miterlimit="10"/>
<path d="M27.6797 63.7634C27.6797 61.6895 28.5035 59.7006 29.97 58.2341C31.4365 56.7676 33.4255 55.9437 35.4994 55.9437C37.5733 55.9437 39.5623 56.7676 41.0288 58.2341C42.4953 59.7006 43.3191 61.6895 43.3191 63.7634" stroke="#2A2A2A" stroke-width="4.38" stroke-miterlimit="10"/>
<path d="M30.2773 45.4992C30.2773 46.8842 30.8275 48.2125 31.8069 49.1919C32.7863 50.1712 34.1146 50.7214 35.4996 50.7214C36.8846 50.7214 38.2129 50.1712 39.1923 49.1919C40.1717 48.2125 40.7219 46.8842 40.7219 45.4992C40.7219 44.1141 40.1717 42.7858 39.1923 41.8065C38.2129 40.8271 36.8846 40.2769 35.4996 40.2769C34.1146 40.2769 32.7863 40.8271 31.8069 41.8065C30.8275 42.7858 30.2773 44.1141 30.2773 45.4992Z" stroke="#2A2A2A" stroke-width="4.38" stroke-miterlimit="10"/>
<path d="M38.2344 32.4572C38.2411 30.4017 39.0513 28.4302 40.492 26.964C41.9327 25.4977 43.8896 24.653 45.9447 24.6102C48.0212 24.6174 50.0101 25.4473 51.4758 26.9182C52.9415 28.389 53.7645 30.3808 53.7644 32.4572" stroke="#2A2A2A" stroke-width="4.38" stroke-miterlimit="10"/>
<path d="M40.7227 14.193C40.7227 15.578 41.2729 16.9063 42.2522 17.8857C43.2316 18.865 44.5599 19.4152 45.9449 19.4152C47.3299 19.4152 48.6582 18.865 49.6376 17.8857C50.617 16.9063 51.1672 15.578 51.1672 14.193C51.1672 12.8079 50.617 11.4796 49.6376 10.5003C48.6582 9.5209 47.3299 8.9707 45.9449 8.9707C44.5599 8.9707 43.2316 9.5209 42.2522 10.5003C41.2729 11.4796 40.7227 12.8079 40.7227 14.193Z" stroke="#2A2A2A" stroke-width="4.38" stroke-miterlimit="10"/>
<path d="M17.2363 32.4572C17.2363 30.3808 18.0593 28.389 19.525 26.9182C20.9907 25.4473 22.9796 24.6174 25.056 24.6102C27.135 24.6174 29.1267 25.4464 30.5968 26.9165C32.0668 28.3865 32.8959 30.3783 32.9031 32.4572" stroke="#2A2A2A" stroke-width="4.38" stroke-miterlimit="10"/>
<path d="M19.834 14.193C19.834 15.578 20.3842 16.9063 21.3635 17.8857C22.3429 18.865 23.6712 19.4152 25.0562 19.4152C26.4413 19.4152 27.7696 18.865 28.7489 17.8857C29.7283 16.9063 30.2785 15.578 30.2785 14.193C30.2785 12.8079 29.7283 11.4796 28.7489 10.5003C27.7696 9.5209 26.4413 8.9707 25.0562 8.9707C23.6712 8.9707 22.3429 9.5209 21.3635 10.5003C20.3842 11.4796 19.834 12.8079 19.834 14.193Z" stroke="#2A2A2A" stroke-width="4.38" stroke-miterlimit="10"/>
<path d="M6.79102 63.7634C6.79102 61.6895 7.61488 59.7005 9.08136 58.2341C10.5478 56.7676 12.5368 55.9437 14.6107 55.9437C15.6399 55.9401 16.6597 56.1397 17.6116 56.5311C18.5635 56.9225 19.4288 57.4979 20.1578 58.2244C20.8868 58.9509 21.4653 59.8141 21.8599 60.7646C22.2546 61.7151 22.4578 62.7342 22.4578 63.7634" stroke="#2A2A2A" stroke-width="4.38" stroke-miterlimit="10"/>
<path d="M9.38867 45.4992C9.38867 46.185 9.52375 46.8641 9.78619 47.4976C10.0486 48.1312 10.4333 48.7069 10.9182 49.1919C11.4032 49.6768 11.9789 50.0615 12.6125 50.3239C13.2461 50.5864 13.9251 50.7214 14.6109 50.7214C15.2967 50.7214 15.9758 50.5864 16.6094 50.3239C17.243 50.0615 17.8187 49.6768 18.3036 49.1919C18.7886 48.7069 19.1732 48.1312 19.4357 47.4976C19.6981 46.8641 19.8332 46.185 19.8332 45.4992C19.8332 44.1141 19.283 42.7858 18.3036 41.8065C17.3243 40.8271 15.996 40.2769 14.6109 40.2769C13.2259 40.2769 11.8976 40.8271 10.9182 41.8065C9.93887 42.7858 9.38867 44.1141 9.38867 45.4992Z" stroke="#2A2A2A" stroke-width="4.38" stroke-miterlimit="10"/>
</svg>
