<svg width="20" height="21" viewBox="0 0 20 21" fill="none" xmlns="http://www.w3.org/2000/svg">
<path d="M14.4 20.375C12.5778 20.375 10.8 20.0417 9.06667 19.375C7.24444 18.6639 5.63333 17.5972 4.23333 16.175C2.83333 14.7528 1.75556 13.1306 1 11.3083C0.333333 9.575 0 7.79722 0 5.975C0 4.95278 0.255556 4.01944 0.766667 3.175C1.27778 2.33055 1.95556 1.65278 2.8 1.14167C3.64444 0.630554 4.57778 0.374998 5.6 0.374998C5.86667 0.374998 6.04444 0.508333 6.13333 0.775L8.66667 7.04167C8.71111 7.175 8.7 7.31944 8.63333 7.475C8.56667 7.63056 8.46667 7.73055 8.33333 7.775L5.6 8.90833C5.64444 9.93056 5.93333 10.8861 6.46667 11.775C7 12.6639 7.71111 13.375 8.6 13.9083C9.48889 14.4417 10.4444 14.7306 11.4667 14.775L12.6 12.0417C12.6444 11.9083 12.7444 11.8083 12.9 11.7417C13.0556 11.675 13.2 11.6639 13.3333 11.7083L19.6 14.2417C19.8667 14.3306 20 14.5083 20 14.775C20 15.7972 19.7444 16.7306 19.2333 17.575C18.7222 18.4194 18.0444 19.0972 17.2 19.6083C16.3556 20.1194 15.4222 20.375 14.4 20.375ZM5.2 1.575C4.08889 1.66389 3.14444 2.13055 2.36667 2.975C1.58889 3.81944 1.2 4.81944 1.2 5.975C1.2 7.75278 1.53333 9.44167 2.2 11.0417C2.86667 12.6417 3.82222 14.0639 5.06667 15.3083C6.31111 16.5528 7.73333 17.5083 9.33333 18.175C10.9333 18.8417 12.6222 19.175 14.4 19.175C15.5556 19.175 16.5556 18.7861 17.4 18.0083C18.2444 17.2306 18.7111 16.2861 18.8 15.175L13.4667 13.0417L12.4 15.6417C12.3111 15.8639 12.1333 15.975 11.8667 15.975C10.5333 15.975 9.28889 15.6417 8.13333 14.975C6.97778 14.3083 6.06667 13.3972 5.4 12.2417C4.73333 11.0861 4.4 9.84167 4.4 8.50833C4.4 8.24167 4.51111 8.06389 4.73333 7.975L7.33333 6.90833L5.2 1.575Z" fill="#1A1A1A"/>
</svg>
