<svg width="60" height="60" viewBox="0 0 60 60" fill="none" xmlns="http://www.w3.org/2000/svg">
<path d="M58.9953 43.0999L57.1956 41.4999V34.4999C57.1956 33.2999 56.7623 32.2666 55.8958 31.3999C55.0293 30.5333 54.0294 30.0999 52.8963 30.0999C51.7631 30.0999 50.7966 30.4333 49.9968 31.0999C49.1969 31.7666 48.6637 32.6333 48.397 33.6999L46.7973 32.2999C45.9974 31.4999 44.9976 31.0999 43.7978 31.0999C42.598 31.0999 41.5315 31.4999 40.5983 32.2999L28.4004 43.0999C28.1337 43.3666 28.0004 43.6999 28.0004 44.0999C28.0004 44.4999 28.1004 44.8333 28.3004 45.0999C28.5003 45.3666 28.8003 45.4999 29.2002 45.4999C29.6002 45.4999 29.9334 45.4333 30.2001 45.2999V55.0999C30.2001 56.2999 30.6 57.2999 31.3999 58.0999C32.1997 58.8999 33.1329 59.2999 34.1994 59.2999H53.1962C54.396 59.2999 55.3625 58.8999 56.0957 58.0999C56.829 57.2999 57.1956 56.2999 57.1956 55.0999V45.2999C57.5955 45.4333 57.9621 45.4999 58.2954 45.4999C58.6287 45.4999 58.9286 45.3333 59.1952 44.9999C59.4619 44.6666 59.5618 44.3333 59.4952 43.9999C59.4285 43.6666 59.2619 43.3666 58.9953 43.0999ZM46.1974 56.4999H41.5982V53.0999C41.5982 52.5666 41.7981 52.0999 42.1981 51.6999C42.598 51.2999 43.0646 51.0999 43.5978 51.0999H44.1977C44.731 51.0999 45.1976 51.2999 45.5975 51.6999C45.9974 52.0999 46.1974 52.5666 46.1974 53.0999V56.4999ZM54.396 55.0999C54.396 55.4999 54.296 55.8333 54.0961 56.0999C53.8961 56.3666 53.5962 56.4999 53.1962 56.4999H48.9969V53.0999C48.9969 51.7666 48.5303 50.6333 47.5972 49.6999C46.664 48.7666 45.5308 48.2999 44.1977 48.2999H43.5978C42.2647 48.2999 41.1316 48.7666 40.1984 49.6999C39.2652 50.6333 38.7986 51.7666 38.7986 53.0999V56.4999H34.1994C33.9328 56.4999 33.6662 56.3666 33.3995 56.0999C33.1329 55.8333 32.9996 55.4999 32.9996 55.0999V42.6999L42.398 34.4999C42.798 34.0999 43.2312 33.8999 43.6978 33.8999C44.1644 33.8999 44.5977 34.0999 44.9976 34.4999L54.396 42.6999V55.0999ZM54.396 34.4999V39.0999L51.1966 36.0999V34.4999C51.1966 34.0999 51.3299 33.7333 51.5965 33.3999C51.8631 33.0666 52.2297 32.8666 52.6963 32.7999C53.1629 32.7333 53.5628 32.8666 53.8961 33.1999C54.2294 33.5333 54.396 33.9666 54.396 34.4999ZM43.7978 37.2999C42.598 37.2999 41.5982 37.7333 40.7983 38.5999C39.9984 39.4666 39.5985 40.4666 39.5985 41.5999C39.5985 42.7333 39.9984 43.6999 40.7983 44.4999C41.5982 45.2999 42.5647 45.6999 43.6978 45.6999C44.831 45.6999 45.8308 45.2999 46.6973 44.4999C47.5638 43.6999 47.9971 42.7333 47.9971 41.5999C47.9971 40.4666 47.5638 39.4666 46.6973 38.5999C45.8308 37.7333 44.8643 37.2999 43.7978 37.2999ZM44.9976 41.4999C44.9976 41.8999 44.8976 42.2333 44.6976 42.4999C44.4977 42.7666 44.1977 42.8999 43.7978 42.8999C43.3979 42.8999 43.0646 42.7666 42.798 42.4999C42.5313 42.2333 42.398 41.8999 42.398 41.4999C42.398 41.0999 42.5313 40.7666 42.798 40.4999C43.0646 40.2333 43.3979 40.0999 43.7978 40.0999C44.1977 40.0999 44.4977 40.2333 44.6976 40.4999C44.8976 40.7666 44.9976 41.0999 44.9976 41.4999ZM25.6008 56.2999H7.8038C6.604 56.2999 5.53751 55.8666 4.60433 54.9999C3.67115 54.1333 3.20456 53.0999 3.20456 51.8999V7.49993C3.20456 6.29993 3.67115 5.23326 4.60433 4.29993C5.53751 3.36659 6.604 2.89993 7.8038 2.89993H48.397C49.7301 2.89993 50.83 3.36659 51.6965 4.29993C52.563 5.23326 52.9963 6.29993 52.9963 7.49993V25.2999C52.9963 25.6999 53.1296 26.0333 53.3962 26.2999C53.6628 26.5666 53.9961 26.6999 54.396 26.6999C54.796 26.6999 55.1292 26.5666 55.3959 26.2999C55.6625 26.0333 55.7958 25.6999 55.7958 25.2999V7.49993C55.7958 5.49993 55.0626 3.76659 53.5962 2.29993C52.1297 0.83326 50.3967 0.099926 48.397 0.099926H7.8038C5.80413 0.099926 4.07108 0.83326 2.60466 2.29993C1.13824 3.76659 0.405029 5.49993 0.405029 7.49993V51.8999C0.405029 53.8999 1.13824 55.6333 2.60466 57.0999C4.07108 58.5666 5.80413 59.2999 7.8038 59.2999H25.6008C26.0008 59.2999 26.3674 59.1333 26.7006 58.7999C27.0339 58.4666 27.2006 58.1333 27.2006 57.7999C27.2006 57.4666 27.0339 57.1333 26.7006 56.7999C26.3674 56.4666 26.0008 56.2999 25.6008 56.2999ZM42.9979 14.2999C42.9979 13.8999 42.8646 13.5666 42.598 13.2999C42.3314 13.0333 41.9981 12.8999 41.5982 12.8999H13.8028C13.4029 12.8999 13.0696 13.0333 12.803 13.2999C12.5363 13.5666 12.403 13.8999 12.403 14.2999C12.403 14.6999 12.5363 15.0333 12.803 15.2999C13.0696 15.5666 13.4029 15.6999 13.8028 15.6999H41.5982C41.9981 15.6999 42.3314 15.5666 42.598 15.2999C42.8646 15.0333 42.9979 14.6999 42.9979 14.2999ZM36.1991 25.0999C36.1991 24.8333 36.0658 24.5333 35.7991 24.1999C35.5325 23.8666 35.1992 23.6999 34.7993 23.6999H13.8028C13.4029 23.6999 13.0696 23.8666 12.803 24.1999C12.5363 24.5333 12.403 24.8666 12.403 25.1999C12.403 25.5333 12.5363 25.8666 12.803 26.1999C13.0696 26.5333 13.4029 26.6999 13.8028 26.6999H34.7993C35.1992 26.6999 35.5325 26.5333 35.7991 26.1999C36.0658 25.8666 36.1991 25.4999 36.1991 25.0999ZM13.8028 34.6999C13.4029 34.6999 13.0696 34.8333 12.803 35.0999C12.5363 35.3666 12.403 35.6999 12.403 36.0999C12.403 36.4999 12.5363 36.8333 12.803 37.0999C13.0696 37.3666 13.4029 37.4999 13.8028 37.4999H22.4014C22.668 37.4999 22.9679 37.3666 23.3012 37.0999C23.6345 36.8333 23.8011 36.4999 23.8011 36.0999C23.8011 35.6999 23.6345 35.3666 23.3012 35.0999C22.9679 34.8333 22.668 34.6999 22.4014 34.6999H13.8028Z" fill="black"/>
</svg>
