<svg width="21" height="21" viewBox="0 0 21 21" fill="none" xmlns="http://www.w3.org/2000/svg">
<path d="M20.6401 10.4732C20.6401 9.98429 20.4735 9.57317 20.1401 9.23984C19.8068 8.90651 19.3957 8.73984 18.9068 8.73984H3.77347V3.33984C3.77347 2.8954 3.92903 2.51762 4.24014 2.20651C4.46236 1.98429 4.71791 1.85095 5.0068 1.80651C5.29569 1.76206 5.59569 1.78428 5.9068 1.87317C5.5068 2.4954 5.35125 3.18429 5.44014 3.93984C5.52903 4.6954 5.84014 5.33984 6.37347 5.87317L6.5068 6.07317C6.64014 6.16206 6.78458 6.20651 6.94014 6.20651C7.09569 6.20651 7.21792 6.16206 7.3068 6.07317L11.1068 2.27317C11.2401 2.13984 11.3068 1.9954 11.3068 1.83984C11.3068 1.68429 11.2401 1.53984 11.1068 1.40651L10.9735 1.27317C10.3957 0.695396 9.69569 0.384285 8.87347 0.33984C8.05125 0.295397 7.32903 0.517618 6.7068 1.00651C6.17347 0.695396 5.59569 0.573174 4.97347 0.639841C4.35125 0.706507 3.81791 0.962063 3.37347 1.40651C2.84014 1.93984 2.57347 2.58429 2.57347 3.33984V8.73984H2.37347C1.88458 8.73984 1.47347 8.90651 1.14014 9.23984C0.806803 9.57317 0.640137 9.98429 0.640137 10.4732C0.640137 10.8732 0.751248 11.2176 0.97347 11.5065C1.19569 11.7954 1.46236 12.0065 1.77347 12.1398V13.4065C1.77347 14.4732 2.06236 15.451 2.64014 16.3398C3.21791 17.2287 3.95125 17.9176 4.84014 18.4065L4.3068 19.4732C4.21791 19.651 4.2068 19.8065 4.27347 19.9398C4.34014 20.0732 4.44014 20.1843 4.57347 20.2732C4.7068 20.3621 4.85125 20.3732 5.0068 20.3065C5.16236 20.2398 5.28458 20.1398 5.37347 20.0065L5.97347 18.8065C6.41791 18.8954 6.88458 18.9398 7.37347 18.9398H13.9068C14.3957 18.9398 14.8624 18.8954 15.3068 18.8065L15.9068 20.0065C15.9957 20.1398 16.1179 20.2398 16.2735 20.3065C16.429 20.3732 16.5735 20.3621 16.7068 20.2732C16.8401 20.1843 16.9401 20.0732 17.0068 19.9398C17.0735 19.8065 17.0624 19.651 16.9735 19.4732L16.4401 18.4065C17.329 17.9176 18.0624 17.2287 18.6401 16.3398C19.2179 15.451 19.5068 14.4732 19.5068 13.4065V12.1398C19.8179 12.0065 20.0846 11.7954 20.3068 11.5065C20.529 11.2176 20.6401 10.8732 20.6401 10.4732ZM9.84014 1.87317L6.97347 4.80651C6.66236 4.36206 6.52903 3.8954 6.57347 3.40651C6.61791 2.91762 6.81791 2.4954 7.17347 2.13984C7.52903 1.78428 7.96236 1.58429 8.47347 1.53984C8.98458 1.4954 9.44014 1.60651 9.84014 1.87317ZM2.37347 9.93984H18.9068C19.0401 9.93984 19.1624 9.9954 19.2735 10.1065C19.3846 10.2176 19.4401 10.351 19.4401 10.5065C19.4401 10.6621 19.3846 10.7954 19.2735 10.9065C19.1624 11.0176 19.0401 11.0732 18.9068 11.0732H2.37347C2.24014 11.0732 2.11791 11.0176 2.0068 10.9065C1.89569 10.7954 1.84014 10.6621 1.84014 10.5065C1.84014 10.351 1.89569 10.2176 2.0068 10.1065C2.11791 9.9954 2.24014 9.93984 2.37347 9.93984ZM18.3068 13.4065C18.3068 14.2065 18.1068 14.9398 17.7068 15.6065C17.3068 16.2732 16.7735 16.8065 16.1068 17.2065C15.4401 17.6065 14.7068 17.8065 13.9068 17.8065H7.37347C6.57347 17.8065 5.84014 17.6065 5.17347 17.2065C4.5068 16.8065 3.97347 16.2732 3.57347 15.6065C3.17347 14.9398 2.97347 14.2065 2.97347 13.4065V12.2732H18.3068V13.4065ZM9.1068 6.27317C9.1068 6.45095 9.16236 6.5954 9.27347 6.70651C9.38458 6.81762 9.51791 6.87317 9.67347 6.87317C9.82903 6.87317 9.96236 6.81762 10.0735 6.70651C10.1846 6.5954 10.2401 6.45095 10.2401 6.27317C10.2401 6.0954 10.1846 5.95095 10.0735 5.83984C9.96236 5.72873 9.82903 5.67317 9.67347 5.67317C9.51791 5.67317 9.38458 5.72873 9.27347 5.83984C9.16236 5.95095 9.1068 6.0954 9.1068 6.27317ZM10.7735 4.60651C10.7735 4.78429 10.829 4.92873 10.9401 5.03984C11.0512 5.15095 11.1846 5.20651 11.3401 5.20651C11.4957 5.20651 11.629 5.15095 11.7401 5.03984C11.8512 4.92873 11.9068 4.78429 11.9068 4.60651C11.9068 4.42873 11.8512 4.28428 11.7401 4.17317C11.629 4.06206 11.4957 4.00651 11.3401 4.00651C11.1846 4.00651 11.0512 4.06206 10.9401 4.17317C10.829 4.28428 10.7735 4.42873 10.7735 4.60651ZM11.1735 6.67317C11.1735 6.80651 11.229 6.93984 11.3401 7.07317C11.4512 7.20651 11.5846 7.27317 11.7401 7.27317C11.8957 7.27317 12.029 7.20651 12.1401 7.07317C12.2512 6.93984 12.3068 6.7954 12.3068 6.63984C12.3068 6.48429 12.2512 6.35095 12.1401 6.23984C12.029 6.12873 11.8957 6.07317 11.7401 6.07317C11.5846 6.07317 11.4512 6.12873 11.3401 6.23984C11.229 6.35095 11.1735 6.4954 11.1735 6.67317Z" fill="#1A1A1A"/>
</svg>
