<svg width="38" height="39" viewBox="0 0 38 39" fill="none" xmlns="http://www.w3.org/2000/svg">
<path d="M3.78986 21.9C3.52319 21.9 3.32319 21.9667 3.18986 22.1C3.05653 22.2333 2.98986 22.4333 2.98986 22.7V37.7667C2.98986 38.0333 3.05653 38.2556 3.18986 38.4333C3.32319 38.6111 3.52319 38.7 3.78986 38.7H33.7899C33.9676 38.7 34.1454 38.6111 34.3232 38.4333C34.501 38.2556 34.5899 38.0333 34.5899 37.7667V25.5C34.5899 25.2333 34.501 25.0333 34.3232 24.9C34.1454 24.7667 33.9454 24.7 33.7232 24.7C33.501 24.7 33.3232 24.7667 33.1899 24.9C33.0565 25.0333 32.9899 25.2333 32.9899 25.5V36.9667H4.58986V22.7C4.58986 22.4333 4.50097 22.2333 4.32319 22.1C4.14542 21.9667 3.96764 21.9 3.78986 21.9ZM7.12319 25.3667C6.85653 25.3667 6.65653 25.4333 6.52319 25.5667C6.38986 25.7 6.32319 25.9 6.32319 26.1667V37.7667C6.32319 38.0333 6.38986 38.2556 6.52319 38.4333C6.65653 38.6111 6.85653 38.7 7.12319 38.7H16.3232C16.501 38.7 16.6787 38.6111 16.8565 38.4333C17.0343 38.2556 17.1232 38.0333 17.1232 37.7667V28.7C17.1232 28.5222 17.0343 28.3445 16.8565 28.1667C16.6787 27.9889 16.4788 27.9 16.2565 27.9C16.0343 27.9 15.8343 27.9889 15.6565 28.1667C15.4787 28.3445 15.3899 28.5222 15.3899 28.7V36.9667H7.92319V26.9667H16.3232C16.501 26.9667 16.6787 26.9 16.8565 26.7667C17.0343 26.6333 17.1232 26.4333 17.1232 26.1667C17.1232 25.9 17.0343 25.7 16.8565 25.5667C16.6787 25.4333 16.501 25.3667 16.3232 25.3667H7.12319ZM20.4565 25.3667C20.1899 25.3667 19.9899 25.4333 19.8565 25.5667C19.7232 25.7 19.6565 25.9 19.6565 26.1667V33.6333C19.6565 33.9 19.7232 34.1 19.8565 34.2333C19.9899 34.3667 20.1899 34.4333 20.4565 34.4333H30.4565C30.6343 34.4333 30.8121 34.3667 30.9899 34.2333C31.1676 34.1 31.2565 33.9 31.2565 33.6333V28.7C31.2565 28.5222 31.1676 28.3445 30.9899 28.1667C30.8121 27.9889 30.6121 27.9 30.3899 27.9C30.1676 27.9 29.9899 27.9889 29.8565 28.1667C29.7232 28.3445 29.6565 28.5222 29.6565 28.7V32.8333H21.2565V26.9667H30.4565C30.6343 26.9667 30.8121 26.9 30.9899 26.7667C31.1676 26.6333 31.2565 26.4333 31.2565 26.1667C31.2565 25.9 31.1676 25.7 30.9899 25.5667C30.8121 25.4333 30.6343 25.3667 30.4565 25.3667H20.4565ZM18.7232 16.4333C17.7454 16.4333 16.9232 16.7889 16.2565 17.5C15.5899 18.2111 15.2565 19.0556 15.2565 20.0333C15.2565 21.0111 15.5899 21.8556 16.2565 22.5667C16.9232 23.2778 17.7454 23.6333 18.7232 23.6333C19.701 23.6333 20.5454 23.2778 21.2565 22.5667C21.9676 21.8556 22.3232 21.0111 22.3232 20.0333C22.3232 19.7667 22.2343 19.5667 22.0565 19.4333C21.8787 19.3 21.6788 19.2333 21.4565 19.2333C21.2343 19.2333 21.0343 19.3 20.8565 19.4333C20.6787 19.5667 20.5899 19.7667 20.5899 20.0333C20.5899 20.5667 20.4121 21.0111 20.0565 21.3667C19.701 21.7222 19.2565 21.9 18.7232 21.9C18.1899 21.9 17.7454 21.7222 17.3899 21.3667C17.0343 21.0111 16.8565 20.5667 16.8565 20.0333C16.8565 19.5 17.0343 19.0556 17.3899 18.7C17.7454 18.3445 18.1899 18.1667 18.7232 18.1667C19.2565 18.1667 19.701 18.3445 20.0565 18.7C20.2343 18.8778 20.4343 18.9667 20.6565 18.9667C20.8787 18.9667 21.0788 18.8778 21.2565 18.7C21.4343 18.5222 21.5232 18.3222 21.5232 18.1C21.5232 17.8778 21.4343 17.6778 21.2565 17.5C20.5454 16.7889 19.701 16.4333 18.7232 16.4333ZM24.1899 28.3C23.8343 28.3 23.6121 28.4778 23.5232 28.8333L22.5899 30.1667C22.501 30.4333 22.4788 30.6778 22.5232 30.9C22.5676 31.1222 22.701 31.2778 22.9232 31.3667C23.1454 31.4556 23.3676 31.4778 23.5899 31.4333C23.8121 31.3889 23.9676 31.2778 24.0565 31.1L24.8565 29.6333C25.0343 29.4556 25.0788 29.2556 24.9899 29.0333C24.901 28.8111 24.7899 28.6556 24.6565 28.5667C24.5232 28.4778 24.3676 28.3889 24.1899 28.3ZM27.5232 28.3C27.1676 28.3 26.9454 28.4778 26.8565 28.8333L25.9232 30.1667C25.8343 30.4333 25.8121 30.6778 25.8565 30.9C25.901 31.1222 26.0343 31.2778 26.2565 31.3667C26.4788 31.4556 26.701 31.4778 26.9232 31.4333C27.1454 31.3889 27.301 31.2778 27.3899 31.1L28.1899 29.6333C28.3676 29.4556 28.4121 29.2556 28.3232 29.0333C28.2343 28.8111 28.1232 28.6556 27.9899 28.5667C27.8565 28.4778 27.701 28.3889 27.5232 28.3ZM32.4565 0.300011C31.0343 0.300011 29.7899 0.833344 28.7232 1.90001C27.6565 2.96668 27.1232 4.25557 27.1232 5.76668C27.1232 7.27779 27.6565 8.54445 28.7232 9.56668C29.7899 10.5889 31.0565 11.1 32.5232 11.1C33.9899 11.1 35.2565 10.5889 36.3232 9.56668C37.3899 8.54445 37.9232 7.27779 37.9232 5.76668C37.9232 4.25557 37.3899 2.96668 36.3232 1.90001C35.2565 0.833344 33.9676 0.300011 32.4565 0.300011ZM32.4565 2.03334C33.5232 2.03334 34.4343 2.3889 35.1899 3.10001C35.9454 3.81112 36.3232 4.70001 36.3232 5.76668C36.3232 6.83334 35.9454 7.72223 35.1899 8.43334C34.4343 9.14445 33.5454 9.50001 32.5232 9.50001C31.501 9.50001 30.6121 9.14445 29.8565 8.43334C29.101 7.72223 28.7232 6.83334 28.7232 5.76668C28.7232 4.70001 29.101 3.81112 29.8565 3.10001C30.6121 2.3889 31.4788 2.03334 32.4565 2.03334ZM3.92319 7.36668C3.74542 7.36668 3.56764 7.43334 3.38986 7.56668C3.21208 7.70001 3.12319 7.90001 3.12319 8.16668V17.6333C3.12319 17.8111 3.21208 17.9889 3.38986 18.1667C3.56764 18.3445 3.76764 18.4333 3.98986 18.4333C4.21208 18.4333 4.38986 18.3445 4.52319 18.1667C4.65653 17.9889 4.72319 17.8111 4.72319 17.6333V8.96668H8.05653V13.9C8.05653 14.1667 8.14542 14.3889 8.32319 14.5667C8.50097 14.7445 8.70097 14.8333 8.92319 14.8333C9.14542 14.8333 9.34542 14.7445 9.52319 14.5667C9.70097 14.3889 9.78986 14.1667 9.78986 13.9V8.16668C9.78986 7.90001 9.70097 7.70001 9.52319 7.56668C9.34542 7.43334 9.16764 7.36668 8.98986 7.36668H3.92319ZM2.32319 4.30001C2.05653 4.30001 1.8343 4.3889 1.65653 4.56668C1.47875 4.74445 1.38986 4.92223 1.38986 5.10001V8.16668C1.38986 8.34446 1.47875 8.52223 1.65653 8.70001C1.8343 8.87779 2.05653 8.96668 2.32319 8.96668H10.5899C10.8565 8.96668 11.0565 8.87779 11.1899 8.70001C11.3232 8.52223 11.3899 8.34446 11.3899 8.16668V5.10001C11.3899 4.92223 11.3232 4.74445 11.1899 4.56668C11.0565 4.3889 10.8565 4.30001 10.5899 4.30001H2.32319ZM3.12319 6.03334H9.78986V7.36668H3.12319V6.03334ZM10.9899 32.0333C10.9899 32.3 10.8787 32.5445 10.6565 32.7667C10.4343 32.9889 10.1899 33.1 9.92319 33.1C9.65653 33.1 9.41208 32.9889 9.18986 32.7667C8.96764 32.5445 8.85653 32.2778 8.85653 31.9667C8.85653 31.6556 8.96764 31.4111 9.18986 31.2333C9.41208 31.0556 9.65653 30.9667 9.92319 30.9667C10.1899 30.9667 10.4343 31.0556 10.6565 31.2333C10.8787 31.4111 10.9899 31.6778 10.9899 32.0333ZM18.5899 7.23334C18.1454 7.23334 17.7454 7.36668 17.3899 7.63334L0.723193 19.1C0.367638 19.3667 0.145416 19.7445 0.0565267 20.2333C-0.0323622 20.7222 0.0565267 21.1445 0.323193 21.5L1.25653 22.8333C1.52319 23.1889 1.87875 23.4111 2.32319 23.5C2.76764 23.5889 3.21208 23.5 3.65653 23.2333L18.7232 12.7L33.9232 23.2333C34.2788 23.5 34.701 23.5889 35.1899 23.5C35.6787 23.4111 36.0565 23.1889 36.3232 22.8333L37.2565 21.5C37.5232 21.1445 37.6121 20.7222 37.5232 20.2333C37.4343 19.7445 37.2121 19.3667 36.8565 19.1L20.1899 7.63334C19.7454 7.36668 19.2121 7.23334 18.5899 7.23334ZM18.7232 8.83334C18.901 8.83334 19.0788 8.87779 19.2565 8.96668L35.7899 20.5667L34.8565 21.9L19.2565 11.1C18.901 10.8333 18.5899 10.8333 18.3232 11.1L2.58986 21.9L1.65653 20.5667L18.3232 8.96668C18.4121 8.87779 18.5454 8.83334 18.7232 8.83334Z" fill="white"/>
</svg>
