<svg width="58" height="58" viewBox="0 0 58 58" fill="none" xmlns="http://www.w3.org/2000/svg">
<path d="M16.8 42.2999C16.8 41.7666 17 41.2999 17.4 40.8999C17.8 40.4999 18.2 40.2999 18.6 40.2999H39.4001C39.8 40.2999 40.2001 40.4999 40.6 40.8999C41 41.2999 41.2001 41.7666 41.2001 42.2999C41.2001 42.8333 41 43.2666 40.6 43.5999C40.2001 43.9333 39.8 44.0999 39.4001 44.0999H18.6C18.2 44.0999 17.8 43.9333 17.4 43.5999C17 43.2666 16.8 42.8333 16.8 42.2999ZM37 3.69992C34.7334 1.83326 32.0667 0.899925 29 0.899925C25.9334 0.899925 23.2667 1.83326 21 3.69992L6.00005 15.2999C4.40005 16.6333 3.13338 18.1666 2.20005 19.8999C1.26672 21.6333 0.800049 23.4999 0.800049 25.4999V44.2999C0.800049 46.5666 1.40005 48.6999 2.60005 50.6999C3.80005 52.6999 5.40005 54.2999 7.40005 55.4999C9.40005 56.6999 11.6 57.2999 14 57.2999H44C46.4001 57.2999 48.6 56.6999 50.6 55.4999C52.6 54.2999 54.2001 52.6999 55.4001 50.6999C56.6 48.6999 57.2001 46.5666 57.2001 44.2999V25.4999C57.2001 23.4999 56.7334 21.6333 55.8 19.8999C54.8667 18.1666 53.6 16.6333 52 15.2999L37 3.69992ZM23.2 6.69992C24.9334 5.36659 26.8667 4.69992 29 4.69992C31.1334 4.69992 33.0667 5.36659 34.8 6.69992L49.8 18.2999C50.8667 19.2333 51.7334 20.3333 52.4001 21.5999C53.0667 22.8666 53.4001 24.1666 53.4001 25.4999V44.2999C53.4001 46.8333 52.4667 48.9999 50.6 50.7999C48.7334 52.5999 46.5334 53.4999 44 53.4999H14C11.4667 53.4999 9.26672 52.5999 7.40005 50.7999C5.53338 48.9999 4.60005 46.8333 4.60005 44.2999V25.4999C4.60005 24.1666 4.93338 22.8666 5.60005 21.5999C6.26672 20.3333 7.13338 19.2333 8.20005 18.2999L23.2 6.69992Z" fill="black"/>
</svg>
