<svg width="14" height="14" viewBox="0 0 14 14" fill="none" xmlns="http://www.w3.org/2000/svg">
<path d="M6.99985 3.90625C8.84555 3.90625 10.369 5.42969 10.369 7.27539C10.369 9.15039 8.84555 10.6445 6.99985 10.6445C5.12485 10.6445 3.63071 9.15039 3.63071 7.27539C3.63071 5.42969 5.12485 3.90625 6.99985 3.90625ZM6.99985 9.47266C8.20102 9.47266 9.16782 8.50586 9.16782 7.27539C9.16782 6.07422 8.20102 5.10742 6.99985 5.10742C5.76938 5.10742 4.80259 6.07422 4.80259 7.27539C4.80259 8.50586 5.79868 9.47266 6.99985 9.47266ZM11.2772 3.78906C11.2772 4.22852 10.9256 4.58008 10.4862 4.58008C10.0467 4.58008 9.69516 4.22852 9.69516 3.78906C9.69516 3.34961 10.0467 2.99805 10.4862 2.99805C10.9256 2.99805 11.2772 3.34961 11.2772 3.78906ZM13.5038 4.58008C13.5624 5.66406 13.5624 8.91602 13.5038 10C13.4452 11.0547 13.2108 11.9629 12.4491 12.7539C11.6874 13.5156 10.7499 13.75 9.69516 13.8086C8.61118 13.8672 5.35923 13.8672 4.27524 13.8086C3.22055 13.75 2.31235 13.5156 1.52134 12.7539C0.759617 11.9629 0.525242 11.0547 0.466649 10C0.408055 8.91602 0.408055 5.66406 0.466649 4.58008C0.525242 3.52539 0.759617 2.58789 1.52134 1.82617C2.31235 1.06445 3.22055 0.830078 4.27524 0.771484C5.35923 0.712891 8.61118 0.712891 9.69516 0.771484C10.7499 0.830078 11.6874 1.06445 12.4491 1.82617C13.2108 2.58789 13.4452 3.52539 13.5038 4.58008ZM12.0975 11.1426C12.4491 10.293 12.3612 8.24219 12.3612 7.27539C12.3612 6.33789 12.4491 4.28711 12.0975 3.4082C11.8631 2.85156 11.4237 2.38281 10.867 2.17773C9.98813 1.82617 7.93735 1.91406 6.99985 1.91406C6.03305 1.91406 3.98227 1.82617 3.13266 2.17773C2.54673 2.41211 2.10727 2.85156 1.8729 3.4082C1.52134 4.28711 1.60923 6.33789 1.60923 7.27539C1.60923 8.24219 1.52134 10.293 1.8729 11.1426C2.10727 11.7285 2.54673 12.168 3.13266 12.4023C3.98227 12.7539 6.03305 12.666 6.99985 12.666C7.93735 12.666 9.98813 12.7539 10.867 12.4023C11.4237 12.168 11.8924 11.7285 12.0975 11.1426Z" fill="white"/>
</svg>
