<svg width="18" height="21" viewBox="0 0 18 21" fill="none" xmlns="http://www.w3.org/2000/svg">
<path d="M15.1333 2.67323C14.2888 1.87322 13.3444 1.251 12.2999 0.806559C11.2555 0.362114 10.1555 0.139891 8.99992 0.139891C7.84436 0.139891 6.73325 0.362114 5.66659 0.806559C4.59992 1.251 3.66659 1.87322 2.86659 2.67323C2.06659 3.47322 1.44436 4.40656 0.999919 5.47323C0.555474 6.53989 0.333252 7.651 0.333252 8.80656C0.333252 9.96211 0.555474 11.0621 0.999919 12.1066C1.44436 13.151 2.06659 14.0954 2.86659 14.9399L7.46659 19.5399C7.86659 19.9399 8.36659 20.1399 8.96659 20.1399C9.56659 20.1399 10.0888 19.9399 10.5333 19.5399L15.1333 14.9399C15.9333 14.0954 16.5555 13.151 16.9999 12.1066C17.4444 11.0621 17.6666 9.96211 17.6666 8.80656C17.6666 7.651 17.4444 6.53989 16.9999 5.47323C16.5555 4.40656 15.9333 3.47322 15.1333 2.67323ZM14.2666 14.0732L9.66659 18.6732C9.48881 18.851 9.26659 18.9399 8.99992 18.9399C8.73325 18.9399 8.48881 18.851 8.26659 18.6732L3.66659 14.0732C2.95547 13.3621 2.42214 12.551 2.06659 11.6399C1.71103 10.7288 1.53325 9.77323 1.53325 8.77323C1.53325 7.77322 1.71103 6.81767 2.06659 5.90656C2.42214 4.99545 2.95547 4.19545 3.66659 3.50656C4.3777 2.81767 5.18881 2.28434 6.09992 1.90656C7.01103 1.52878 7.96659 1.33989 8.96659 1.33989C9.96659 1.33989 10.9221 1.52878 11.8333 1.90656C12.7444 2.28434 13.5555 2.80656 14.2666 3.47322C15.2444 4.451 15.8999 5.58434 16.2333 6.87323C16.5666 8.16211 16.5666 9.451 16.2333 10.7399C15.8999 12.0288 15.2444 13.1399 14.2666 14.0732ZM8.99992 5.67323C8.15547 5.67323 7.42214 5.98434 6.79992 6.60656C6.1777 7.22878 5.86659 7.96211 5.86659 8.80656C5.86659 9.651 6.1777 10.3732 6.79992 10.9732C7.42214 11.5732 8.15547 11.8732 8.99992 11.8732C9.84436 11.8732 10.5666 11.5732 11.1666 10.9732C11.7666 10.3732 12.0666 9.651 12.0666 8.80656C12.0666 7.96211 11.7666 7.22878 11.1666 6.60656C10.5666 5.98434 9.84436 5.67323 8.99992 5.67323ZM8.99992 10.7399C8.46659 10.7399 8.01103 10.551 7.63325 10.1732C7.25547 9.79545 7.06659 9.33989 7.06659 8.80656C7.06659 8.27322 7.25547 7.81767 7.63325 7.43989C8.01103 7.06211 8.46659 6.87323 8.99992 6.87323C9.53325 6.87323 9.98881 7.06211 10.3666 7.43989C10.7444 7.81767 10.9333 8.27322 10.9333 8.80656C10.9333 9.33989 10.7444 9.79545 10.3666 10.1732C9.98881 10.551 9.53325 10.7399 8.99992 10.7399Z" fill="#1A1A1A"/>
</svg>
