<svg width="200" height="57" viewBox="0 0 200 57" fill="none" xmlns="http://www.w3.org/2000/svg">
<g clip-path="url(#clip0_214_810)">
<path fill-rule="evenodd" clip-rule="evenodd" d="M24.4471 16.3096L24.4353 56.9517L28.7746 56.9396L28.7625 42.7531L36.4281 42.741L36.416 56.9396H40.9578V1.80762L36.4039 4.82718L36.3983 38.4543L28.8102 38.4292L28.8162 8.82194L0 25.4907L0.0387793 48.3394L4.59272 48.3518L4.59861 28.0187L24.4471 16.3096Z" fill="white"/>
<path fill-rule="evenodd" clip-rule="evenodd" d="M16.567 56.7493V25.8745L12.0856 28.501L12.1802 52.5564L0.0686547 52.4613L0.00878906 56.7251L16.567 56.7493Z" fill="white"/>
<path d="M72.3921 33.889V18.9565H76.0586V33.889C76.0586 35.3055 75.7555 36.5121 75.1493 37.5085C74.5431 38.505 73.717 39.267 72.6708 39.7946C71.6246 40.3221 70.4367 40.5859 69.107 40.5859C67.7479 40.5859 66.5404 40.3563 65.4845 39.8971C64.4383 39.438 63.6171 38.7346 63.0206 37.787C62.4242 36.8393 62.126 35.6377 62.126 34.1821H65.8218C65.8218 35.0222 65.9538 35.7012 66.2178 36.219C66.4916 36.727 66.8729 37.0982 67.3617 37.3327C67.8604 37.5574 68.4421 37.6697 69.107 37.6697C69.7425 37.6697 70.3047 37.5281 70.7936 37.2448C71.2922 36.9517 71.6833 36.5267 71.9668 35.9699C72.2504 35.4032 72.3921 34.7096 72.3921 33.889Z" fill="white"/>
<path d="M89.4925 36.5559V24.437H93.0416V40.2927H89.6978L89.4925 36.5559ZM89.9911 33.2588L91.179 33.2295C91.179 34.2943 91.0617 35.2761 90.8271 36.1749C90.5924 37.0639 90.2306 37.8406 89.7418 38.5049C89.2529 39.1595 88.6272 39.6724 87.8645 40.0436C87.1019 40.4051 86.1877 40.5858 85.122 40.5858C84.3496 40.5858 83.6408 40.4734 82.9955 40.2487C82.3502 40.024 81.7929 39.6772 81.3236 39.2083C80.864 38.7394 80.5072 38.1288 80.253 37.3765C79.9987 36.6243 79.8716 35.7255 79.8716 34.6802V24.437H83.4061V34.7095C83.4061 35.2859 83.4746 35.7695 83.6114 36.1603C83.7483 36.5413 83.9341 36.849 84.1687 37.0835C84.4034 37.3179 84.6772 37.484 84.99 37.5817C85.3029 37.6794 85.6353 37.7282 85.9873 37.7282C86.9944 37.7282 87.7863 37.5329 88.3632 37.1421C88.9498 36.7415 89.3654 36.2042 89.6098 35.5301C89.864 34.8561 89.9911 34.0989 89.9911 33.2588Z" fill="white"/>
<path d="M105.566 35.9992C105.566 35.6475 105.478 35.33 105.302 35.0467C105.126 34.7536 104.789 34.4898 104.29 34.2553C103.802 34.0209 103.078 33.8059 102.12 33.6106C101.279 33.4249 100.507 33.2051 99.8028 32.9511C99.1086 32.6874 98.5122 32.3699 98.0135 31.9986C97.5149 31.6274 97.1287 31.1878 96.8549 30.6798C96.5812 30.1717 96.4443 29.5856 96.4443 28.9213C96.4443 28.2765 96.5861 27.6659 96.8696 27.0895C97.1531 26.5131 97.5589 26.0051 98.0869 25.5655C98.6148 25.1259 99.2552 24.7791 100.008 24.5251C100.771 24.271 101.621 24.144 102.56 24.144C103.89 24.144 105.029 24.3687 105.977 24.8181C106.935 25.2578 107.668 25.8586 108.177 26.6206C108.685 27.3728 108.94 28.2228 108.94 29.1704H105.405C105.405 28.7503 105.297 28.3595 105.082 27.9981C104.877 27.6268 104.564 27.3289 104.144 27.1042C103.723 26.8697 103.195 26.7525 102.56 26.7525C101.954 26.7525 101.45 26.8502 101.049 27.0455C100.658 27.2312 100.365 27.4754 100.169 27.7782C99.9837 28.0811 99.8908 28.4133 99.8908 28.7747C99.8908 29.0385 99.9397 29.2778 100.037 29.4928C100.145 29.6979 100.321 29.8884 100.565 30.0643C100.81 30.2304 101.142 30.3867 101.563 30.5332C101.993 30.6798 102.531 30.8214 103.176 30.9582C104.388 31.2122 105.429 31.5395 106.3 31.94C107.18 32.3308 107.854 32.8388 108.324 33.464C108.793 34.0795 109.028 34.861 109.028 35.8087C109.028 36.5121 108.876 37.1568 108.573 37.743C108.28 38.3194 107.849 38.8225 107.282 39.2524C106.715 39.6724 106.036 39.9997 105.244 40.2342C104.462 40.4687 103.582 40.5859 102.604 40.5859C101.167 40.5859 99.9494 40.3319 98.9522 39.8239C97.9549 39.3061 97.1971 38.6467 96.6789 37.8456C96.1705 37.0347 95.9163 36.1946 95.9163 35.3251H99.3335C99.3726 35.9796 99.5535 36.5023 99.8761 36.8931C100.208 37.2741 100.619 37.5525 101.108 37.7283C101.607 37.8944 102.12 37.9775 102.648 37.9775C103.283 37.9775 103.816 37.8944 104.246 37.7283C104.677 37.5525 105.004 37.318 105.229 37.025C105.454 36.7221 105.566 36.3802 105.566 35.9992Z" fill="white"/>
<path d="M119.396 24.437V27.0161H110.45V24.437H119.396ZM113.031 20.5537H116.566V35.9111C116.566 36.3996 116.634 36.7757 116.771 37.0395C116.918 37.2935 117.118 37.4645 117.372 37.5524C117.627 37.6403 117.925 37.6843 118.267 37.6843C118.511 37.6843 118.746 37.6696 118.971 37.6403C119.196 37.611 119.377 37.5817 119.514 37.5524L119.528 40.2487C119.235 40.3367 118.893 40.4148 118.502 40.4832C118.12 40.5516 117.68 40.5858 117.182 40.5858C116.37 40.5858 115.652 40.4441 115.026 40.1608C114.4 39.8677 113.911 39.3939 113.559 38.7394C113.207 38.0848 113.031 37.2154 113.031 36.131V20.5537Z" fill="white"/>
<path d="M136.585 27.8662V30.7823H125.248V27.8662H136.585ZM126.157 18.9565V40.2928H122.476V18.9565H126.157ZM139.415 18.9565V40.2928H135.749V18.9565H139.415Z" fill="white"/>
<path d="M142.774 32.5408V32.2038C142.774 31.0608 142.94 30.0008 143.272 29.0238C143.605 28.0371 144.084 27.1823 144.71 26.4594C145.345 25.7267 146.118 25.1601 147.027 24.7595C147.946 24.3492 148.982 24.144 150.136 24.144C151.299 24.144 152.336 24.3492 153.245 24.7595C154.164 25.1601 154.942 25.7267 155.577 26.4594C156.213 27.1823 156.697 28.0371 157.029 29.0238C157.361 30.0008 157.528 31.0608 157.528 32.2038V32.5408C157.528 33.6838 157.361 34.7438 157.029 35.7207C156.697 36.6977 156.213 37.5525 155.577 38.2852C154.942 39.0081 154.169 39.5748 153.26 39.9851C152.351 40.3856 151.319 40.5859 150.165 40.5859C149.002 40.5859 147.961 40.3856 147.041 39.9851C146.132 39.5748 145.36 39.0081 144.724 38.2852C144.089 37.5525 143.605 36.6977 143.272 35.7207C142.94 34.7438 142.774 33.6838 142.774 32.5408ZM146.308 32.2038V32.5408C146.308 33.254 146.382 33.9281 146.528 34.5631C146.675 35.1981 146.905 35.7549 147.217 36.2336C147.53 36.7123 147.931 37.0885 148.42 37.362C148.909 37.6355 149.491 37.7723 150.165 37.7723C150.82 37.7723 151.387 37.6355 151.867 37.362C152.355 37.0885 152.756 36.7123 153.069 36.2336C153.382 35.7549 153.612 35.1981 153.758 34.5631C153.915 33.9281 153.993 33.254 153.993 32.5408V32.2038C153.993 31.5004 153.915 30.8361 153.758 30.2108C153.612 29.5758 153.377 29.0141 153.055 28.5256C152.742 28.0371 152.341 27.6561 151.852 27.3826C151.373 27.0993 150.801 26.9576 150.136 26.9576C149.471 26.9576 148.894 27.0993 148.405 27.3826C147.926 27.6561 147.53 28.0371 147.217 28.5256C146.905 29.0141 146.675 29.5758 146.528 30.2108C146.382 30.8361 146.308 31.5004 146.308 32.2038Z" fill="white"/>
<path d="M164.025 27.661V40.2928H160.49V24.4371H163.819L164.025 27.661ZM163.453 31.7788L162.25 31.7642C162.25 30.67 162.387 29.6589 162.661 28.7308C162.934 27.8027 163.335 26.9967 163.863 26.3128C164.391 25.6192 165.046 25.0868 165.828 24.7156C166.62 24.3346 167.535 24.144 168.571 24.144C169.295 24.144 169.954 24.2515 170.551 24.4664C171.157 24.6716 171.68 24.9989 172.12 25.4483C172.57 25.8976 172.912 26.474 173.147 27.1774C173.391 27.8808 173.513 28.7308 173.513 29.7272V40.2928H169.979V30.035C169.979 29.2632 169.862 28.6575 169.627 28.2179C169.402 27.7783 169.075 27.4656 168.644 27.28C168.224 27.0846 167.72 26.9869 167.134 26.9869C166.469 26.9869 165.902 27.1139 165.433 27.3679C164.973 27.6219 164.597 27.9688 164.303 28.4084C164.01 28.848 163.795 29.356 163.658 29.9324C163.521 30.5088 163.453 31.1243 163.453 31.7788ZM173.293 30.8409L171.636 31.2073C171.636 30.2499 171.768 29.3462 172.032 28.4963C172.306 27.6366 172.702 26.8844 173.22 26.2396C173.748 25.585 174.398 25.0721 175.171 24.7009C175.943 24.3297 176.828 24.144 177.825 24.144C178.637 24.144 179.36 24.2564 179.996 24.4811C180.641 24.696 181.189 25.0379 181.638 25.5069C182.088 25.9758 182.43 26.5864 182.665 27.3386C182.9 28.0811 183.017 28.9799 183.017 30.035V40.2928H179.468V30.0203C179.468 29.2192 179.35 28.5989 179.116 28.1593C178.891 27.7196 178.568 27.4168 178.148 27.2507C177.727 27.0749 177.224 26.9869 176.637 26.9869C176.09 26.9869 175.606 27.0895 175.185 27.2947C174.775 27.4901 174.428 27.7685 174.144 28.1299C173.861 28.4816 173.645 28.8871 173.499 29.3462C173.362 29.8054 173.293 30.3036 173.293 30.8409Z" fill="white"/>
<path d="M193.65 40.5859C192.476 40.5859 191.416 40.3954 190.467 40.0144C189.529 39.6236 188.727 39.0814 188.062 38.3878C187.407 37.6942 186.903 36.8784 186.551 35.9406C186.199 35.0027 186.023 33.9916 186.023 32.9072V32.321C186.023 31.0803 186.204 29.9568 186.566 28.9506C186.928 27.9443 187.431 27.0846 188.077 26.3715C188.722 25.6485 189.485 25.0966 190.365 24.7156C191.244 24.3346 192.198 24.144 193.224 24.144C194.359 24.144 195.351 24.3346 196.202 24.7156C197.052 25.0966 197.756 25.6339 198.313 26.3275C198.88 27.0114 199.301 27.8271 199.575 28.7747C199.858 29.7224 200 30.7677 200 31.9107V33.4201H187.739V30.8849H196.51V30.6065C196.49 29.9715 196.363 29.3755 196.128 28.8187C195.903 28.2618 195.556 27.8124 195.087 27.4705C194.618 27.1286 193.992 26.9576 193.21 26.9576C192.623 26.9576 192.1 27.0846 191.64 27.3386C191.191 27.5829 190.814 27.9394 190.511 28.4084C190.208 28.8773 189.973 29.4439 189.807 30.1082C189.651 30.7628 189.573 31.5004 189.573 32.321V32.9072C189.573 33.6008 189.665 34.2456 189.851 34.8415C190.047 35.4277 190.33 35.9406 190.702 36.3802C191.073 36.8198 191.523 37.1666 192.051 37.4206C192.579 37.6648 193.18 37.787 193.855 37.787C194.706 37.787 195.463 37.616 196.128 37.2741C196.793 36.9321 197.37 36.4486 197.859 35.8233L199.721 37.6258C199.379 38.124 198.934 38.6027 198.387 39.0619C197.839 39.5113 197.169 39.8776 196.378 40.1609C195.595 40.4442 194.686 40.5859 193.65 40.5859Z" fill="white"/>
</g>
<defs>
<clipPath id="clip0_214_810">
<rect width="200" height="56" fill="white" transform="translate(0 0.950195)"/>
</clipPath>
</defs>
</svg>
