<svg width="21" height="21" viewBox="0 0 21 21" fill="none" xmlns="http://www.w3.org/2000/svg">
<path d="M16.3867 19.1398H13.9867C13.8534 19.1398 13.72 19.2065 13.5867 19.3398C13.4534 19.4732 13.3867 19.6176 13.3867 19.7732C13.3867 19.9287 13.4534 20.0621 13.5867 20.1732C13.72 20.2843 13.8534 20.3398 13.9867 20.3398H16.3867C16.5645 20.3398 16.7089 20.2843 16.82 20.1732C16.9311 20.0621 16.9867 19.9287 16.9867 19.7732C16.9867 19.6176 16.9311 19.4732 16.82 19.3398C16.7089 19.2065 16.5645 19.1398 16.3867 19.1398ZM11.6534 19.1398H9.32002C9.14224 19.1398 8.9978 19.2065 8.88669 19.3398C8.77558 19.4732 8.72002 19.6176 8.72002 19.7732C8.72002 19.9287 8.77558 20.0621 8.88669 20.1732C8.9978 20.2843 9.14224 20.3398 9.32002 20.3398H11.6534C11.8311 20.3398 11.9756 20.2843 12.0867 20.1732C12.1978 20.0621 12.2534 19.9287 12.2534 19.7732C12.2534 19.6176 12.1978 19.4732 12.0867 19.3398C11.9756 19.2065 11.8311 19.1398 11.6534 19.1398ZM19.92 8.53984C19.7867 8.53984 19.6534 8.5954 19.52 8.70651C19.3867 8.81762 19.32 8.96207 19.32 9.13984V11.4732C19.32 11.651 19.3867 11.7954 19.52 11.9065C19.6534 12.0176 19.7978 12.0732 19.9534 12.0732C20.1089 12.0732 20.2422 12.0176 20.3534 11.9065C20.4645 11.7954 20.52 11.651 20.52 11.4732V9.13984C20.52 8.96207 20.4645 8.81762 20.3534 8.70651C20.2422 8.5954 20.0978 8.53984 19.92 8.53984ZM19.92 13.2065C19.7867 13.2065 19.6534 13.2732 19.52 13.4065C19.3867 13.5398 19.32 13.6732 19.32 13.8065V16.1398C19.32 16.3176 19.3867 16.4621 19.52 16.5732C19.6534 16.6843 19.7978 16.7398 19.9534 16.7398C20.1089 16.7398 20.2422 16.6843 20.3534 16.5732C20.4645 16.4621 20.52 16.3176 20.52 16.1398V13.8065C20.52 13.6732 20.4645 13.5398 20.3534 13.4065C20.2422 13.2732 20.0978 13.2065 19.92 13.2065ZM6.98669 19.1398H6.38669V18.6065C6.38669 18.4287 6.33113 18.2843 6.22002 18.1732C6.10891 18.0621 5.96446 18.0065 5.78669 18.0065C5.60891 18.0065 5.46446 18.0621 5.35335 18.1732C5.24224 18.2843 5.18669 18.4287 5.18669 18.6065V19.7398C5.18669 19.9176 5.24224 20.0621 5.35335 20.1732C5.46446 20.2843 5.60891 20.3398 5.78669 20.3398H6.98669C7.12002 20.3398 7.24224 20.2843 7.35335 20.1732C7.46446 20.0621 7.52002 19.9287 7.52002 19.7732C7.52002 19.6176 7.46446 19.4732 7.35335 19.3398C7.24224 19.2065 7.12002 19.1398 6.98669 19.1398ZM19.92 5.00651H18.7867C18.6089 5.00651 18.4645 5.06207 18.3534 5.17318C18.2422 5.28429 18.1867 5.42873 18.1867 5.60651C18.1867 5.78429 18.2422 5.92873 18.3534 6.03984C18.4645 6.15095 18.6089 6.20651 18.7867 6.20651H19.32V6.80651C19.32 6.93984 19.3867 7.06207 19.52 7.17318C19.6534 7.28429 19.7978 7.33984 19.9534 7.33984C20.1089 7.33984 20.2422 7.28429 20.3534 7.17318C20.4645 7.06207 20.52 6.93984 20.52 6.80651V5.60651C20.52 5.42873 20.4645 5.28429 20.3534 5.17318C20.2422 5.06207 20.0978 5.00651 19.92 5.00651ZM19.92 18.0065C19.7867 18.0065 19.6534 18.0621 19.52 18.1732C19.3867 18.2843 19.32 18.4287 19.32 18.6065V19.1398H18.7867C18.6089 19.1398 18.4645 19.2065 18.3534 19.3398C18.2422 19.4732 18.1867 19.6176 18.1867 19.7732C18.1867 19.9287 18.2422 20.0621 18.3534 20.1732C18.4645 20.2843 18.6089 20.3398 18.7867 20.3398H19.92C20.0978 20.3398 20.2422 20.2843 20.3534 20.1732C20.4645 20.0621 20.52 19.9176 20.52 19.7398V18.6065C20.52 18.4287 20.4645 18.2843 20.3534 18.1732C20.2422 18.0621 20.0978 18.0065 19.92 18.0065ZM16.3867 5.00651H15.7867V0.939842C15.7867 0.762066 15.72 0.61762 15.5867 0.50651C15.4534 0.395399 15.32 0.339842 15.1867 0.339842H1.12002C0.942242 0.339842 0.797797 0.395399 0.686686 0.50651C0.575575 0.61762 0.52002 0.762066 0.52002 0.939842V15.0065C0.52002 15.1398 0.575575 15.2732 0.686686 15.4065C0.797797 15.5398 0.942242 15.6065 1.12002 15.6065H5.18669V16.1398C5.18669 16.3176 5.24224 16.4621 5.35335 16.5732C5.46446 16.6843 5.60891 16.7398 5.78669 16.7398C5.96446 16.7398 6.10891 16.6843 6.22002 16.5732C6.33113 16.4621 6.38669 16.3176 6.38669 16.1398V6.20651H16.3867C16.5645 6.20651 16.7089 6.15095 16.82 6.03984C16.9311 5.92873 16.9867 5.78429 16.9867 5.60651C16.9867 5.42873 16.9311 5.28429 16.82 5.17318C16.7089 5.06207 16.5645 5.00651 16.3867 5.00651ZM14.5867 5.00651H5.78669C5.60891 5.00651 5.46446 5.06207 5.35335 5.17318C5.24224 5.28429 5.18669 5.42873 5.18669 5.60651V14.4065H1.72002V1.53984H14.5867V5.00651Z" fill="#1A1A1A"/>
</svg>
