<svg width="14" height="13" viewBox="0 0 14 13" fill="none" xmlns="http://www.w3.org/2000/svg">
<path d="M0.8125 6.02504H12.0341L7.73716 1.93229C7.51216 1.71798 7.50344 1.36191 7.71775 1.13691C7.93178 0.912196 8.28784 0.903196 8.51312 1.11751L13.4204 5.79188C13.6327 6.00451 13.75 6.28688 13.75 6.58754C13.75 6.88791 13.6327 7.17057 13.4105 7.39248L8.51284 12.0573C8.404 12.1611 8.2645 12.2126 8.125 12.2126C7.9765 12.2126 7.828 12.1541 7.71747 12.0379C7.50316 11.8129 7.51188 11.4571 7.73688 11.2428L12.0518 7.15004H0.8125C0.502 7.15004 0.25 6.89804 0.25 6.58754C0.25 6.27704 0.502 6.02504 0.8125 6.02504Z" fill="white"/>
</svg>
