<svg width="69" height="70" viewBox="0 0 69 70" fill="none" xmlns="http://www.w3.org/2000/svg">
<path d="M68.7445 5.33455C68.5903 2.86801 66.6233 0.902429 64.1566 0.750124C59.8487 0.494679 48.8391 0.886625 39.7017 10.024L37.8295 11.8997H17.1226C15.8236 11.8967 14.5774 12.4133 13.6616 13.3345L1.64062 25.352C-1.02586 28.0193 0.194985 32.5729 3.83816 33.5485C4.02929 33.5997 4.22335 33.6392 4.41927 33.6669L18.113 35.5777L33.917 51.3816L35.8277 65.0929C36.3607 68.8266 40.7357 70.5831 43.7026 68.2547C43.857 68.1336 44.0039 68.0033 44.1427 67.8645L56.1636 55.8436C57.0845 54.9275 57.6011 53.6814 57.5984 52.3825V31.6652L59.4707 29.7929C68.6045 20.6486 69 9.646 68.7445 5.33455ZM4.44027 29.0475C4.3637 28.8004 4.42963 28.5313 4.61174 28.3476L16.6292 16.3021C16.7604 16.172 16.9378 16.099 17.1226 16.0992H33.63L18.3545 31.3712L5.00718 29.5094C4.74397 29.4799 4.52232 29.2993 4.44027 29.0475ZM53.3955 52.372C53.3947 52.5574 53.3204 52.7348 53.189 52.8655L41.175 64.8829C40.7962 65.266 40.1447 65.0953 40.0023 64.5757C39.995 64.549 39.9893 64.5219 39.9852 64.4945L38.1234 51.1402L53.3955 35.8646V52.372ZM56.4996 26.8253L35.8977 47.4236L22.071 33.5969L42.6728 12.9916C48.2592 7.36936 56.0022 4.43494 63.9116 4.94261C64.2592 4.9717 64.5323 5.25227 64.5521 5.60052C65.0546 13.504 62.1205 21.2396 56.5031 26.8218L56.4996 26.8253ZM26.099 55.4026C24.5872 58.7377 19.4953 66.4927 5.10168 66.4927C3.94206 66.4927 3.00193 65.5526 3.00193 64.393C3.00193 49.9993 10.7569 44.9075 14.092 43.3957C15.5629 42.7222 17.2113 43.8936 17.0591 45.5041C16.9885 46.2516 16.5245 46.9046 15.8418 47.2172C13.3921 48.3265 7.9573 51.9486 7.27838 62.2338C17.5636 61.5548 21.1856 56.1025 22.295 53.6703C22.9684 52.1994 24.9817 52.0092 25.9188 53.3279C26.3537 53.9399 26.429 54.7375 26.1165 55.4201L26.099 55.4026Z" fill="#2A2A2A"/>
</svg>
