<svg width="52" height="54" viewBox="0 0 52 54" fill="none" xmlns="http://www.w3.org/2000/svg">
<path d="M26.0001 53.9C25.2001 53.9 24.4667 53.7 23.8001 53.3L15.0001 48.1C11.2667 45.9667 8.23339 43.0334 5.90006 39.3C3.56673 35.5667 2.20006 31.5667 1.80006 27.3L0.600059 12.3C0.466725 11.2334 0.666725 10.2667 1.20006 9.40002C1.73339 8.53336 2.46673 7.96669 3.40006 7.70002C4.86673 7.30002 6.20006 6.70002 7.40006 5.90002C8.86673 4.96669 10.2001 3.76669 11.4001 2.30002C12.2001 1.23336 13.3334 0.700024 14.8001 0.700024H37.2001C38.6667 0.700024 39.8001 1.23336 40.6001 2.30002C41.8001 3.76669 43.1334 4.96669 44.6001 5.90002C45.8001 6.70002 47.1334 7.30002 48.6001 7.70002C49.5334 7.96669 50.2667 8.53336 50.8001 9.40002C51.3334 10.2667 51.6001 11.1667 51.6001 12.1L50.2001 27.1C49.9334 31.5 48.6334 35.5334 46.3001 39.2C43.9667 42.8667 40.9334 45.8334 37.2001 48.1L28.4001 53.3C27.6001 53.7 26.8001 53.9 26.0001 53.9ZM14.8001 4.30002C14.5334 4.30002 14.3334 4.36669 14.2001 4.50002C12.8667 6.23336 11.3334 7.76669 9.60006 9.10003C8.13339 10.0334 6.53339 10.7 4.80006 11.1C4.40006 11.2334 4.20006 11.5 4.20006 11.9L5.60006 26.9C5.86673 30.6334 7.00006 34.1 9.00006 37.3C11.0001 40.5 13.6001 43.0334 16.8001 44.9L25.6001 50.1C25.8667 50.2334 26.1334 50.2334 26.4001 50.1L35.2001 44.9C38.4001 43.0334 41.0001 40.5334 43.0001 37.4C45.0001 34.2667 46.1334 30.7667 46.4001 26.9L47.8001 11.9C47.8001 11.6334 47.6001 11.4334 47.2001 11.3C45.4667 10.9 43.8667 10.1667 42.4001 9.10003C40.6667 7.90002 39.1334 6.43336 37.8001 4.70002C37.6667 4.56669 37.4667 4.50002 37.2001 4.50002L14.8001 4.30002ZM24.2001 33.1C23.6667 33.1 23.2001 32.9 22.8001 32.5L17.8001 27.5C17.5334 27.2334 17.4334 26.8667 17.5001 26.4C17.5667 25.9334 17.7667 25.5334 18.1001 25.2C18.4334 24.8667 18.8001 24.6667 19.2001 24.6C19.6001 24.5334 20.0001 24.6334 20.4001 24.9L24.2001 28.7L32.8001 19.9C33.2001 19.7667 33.6001 19.7 34.0001 19.7C34.4001 19.7 34.7667 19.8667 35.1001 20.2C35.4334 20.5334 35.6334 20.9 35.7001 21.3C35.7667 21.7 35.6667 22.1 35.4001 22.5L25.4001 32.5C25.1334 32.9 24.7334 33.1 24.2001 33.1Z" fill="black"/>
</svg>
